<svg xmlns="http://www.w3.org/2000/svg" viewBox="150 0 1500 500"><style>g+g{opacity:0}@media(prefers-color-scheme:dark){g{opacity:0}g+g{opacity:1}}</style><g><rect x="1411.3" y="74.77" width="193.77" height="350.46"/><path d="M287.95,285.33c-8.93.29-16.66,1.35-23.18,3.17-5.38,1.54-9.22,3.67-11.52,6.41-2.3,2.74-3.46,6.31-3.46,10.73,0,4.13,1.08,7.7,3.24,10.73,2.16,3.02,5.18,5.33,9.07,6.91,3.89,1.58,8.42,2.38,13.61,2.38,5.66,0,11.76-.89,18.29-2.66,6.53-1.78,12.86-4.25,19.01-7.42l2.02,20.45h-6.34c-8.26,5.57-16.87,9.62-25.85,12.17-8.98,2.54-17.35,3.82-25.13,3.82-9.5,0-17.69-1.68-24.55-5.04-6.87-3.36-12.12-8.04-15.77-14.04-3.65-6-5.47-12.89-5.47-20.66,0-12.77,5.3-22.9,15.91-30.38,10.61-7.49,23.42-12.77,38.45-15.84,15.02-3.07,30.89-4.9,47.59-5.47l.72,25.06c-8.83-.48-17.71-.58-26.64-.29ZM311.43,348.69v-104.4c0-4.51-1.15-8.14-3.46-10.87-2.3-2.74-5.47-4.73-9.5-5.98-4.03-1.25-8.74-1.87-14.11-1.87-8.93,0-19.08,1.08-30.46,3.24s-23.5,5.45-36.36,9.86l4.03-34.56c10.46-3.26,21.41-5.85,32.83-7.78,11.42-1.92,22.75-2.88,33.98-2.88,13.73,0,25.06,1.54,33.98,4.61,8.93,3.07,15.57,7.85,19.94,14.33,4.37,6.48,6.55,14.81,6.55,24.98v111.31h-37.44Z"/><path d="M432.82,348.69h-37.44v-151.63h35.42v27.65l2.02,2.02v121.97ZM492.29,348.69v-104.4c0-5.28-.89-9.48-2.66-12.6-1.78-3.12-4.3-5.38-7.56-6.77-3.26-1.39-7.3-2.09-12.1-2.09-8.26,0-16.27,1.8-24.05,5.4-7.78,3.6-15.07,8.47-21.89,14.62l2.88-25.2h5.76c6.24-7.39,14.16-13.22,23.76-17.5,9.6-4.27,19.78-6.41,30.53-6.41,13.54,0,24,3.55,31.39,10.66,7.39,7.11,11.13,16.95,11.23,29.52l.58,114.77h-37.87Z"/><path d="M645.07,285.33c-8.93.29-16.66,1.35-23.18,3.17-5.38,1.54-9.22,3.67-11.52,6.41-2.3,2.74-3.46,6.31-3.46,10.73,0,4.13,1.08,7.7,3.24,10.73,2.16,3.02,5.18,5.33,9.07,6.91,3.89,1.58,8.42,2.38,13.61,2.38,5.66,0,11.76-.89,18.29-2.66,6.53-1.78,12.86-4.25,19.01-7.42l2.02,20.45h-6.34c-8.26,5.57-16.87,9.62-25.85,12.17-8.98,2.54-17.35,3.82-25.13,3.82-9.5,0-17.69-1.68-24.55-5.04-6.87-3.36-12.12-8.04-15.77-14.04-3.65-6-5.47-12.89-5.47-20.66,0-12.77,5.3-22.9,15.91-30.38,10.61-7.49,23.42-12.77,38.45-15.84,15.02-3.07,30.89-4.9,47.59-5.47l.72,25.06c-8.83-.48-17.71-.58-26.64-.29ZM668.54,348.69v-104.4c0-4.51-1.15-8.14-3.46-10.87-2.3-2.74-5.47-4.73-9.5-5.98-4.03-1.25-8.74-1.87-14.11-1.87-8.93,0-19.08,1.08-30.46,3.24s-23.5,5.45-36.36,9.86l4.03-34.56c10.46-3.26,21.41-5.85,32.83-7.78,11.42-1.92,22.75-2.88,33.98-2.88,13.73,0,25.06,1.54,33.98,4.61,8.93,3.07,15.57,7.85,19.94,14.33,4.37,6.48,6.55,14.81,6.55,24.98v111.31h-37.44Z"/><path d="M786.48,151.56l6.48,6.48h-55.44l2.88-29.66h83.66v172.8c0,4.61.55,8.38,1.66,11.3,1.1,2.93,3.07,5.14,5.9,6.62,2.83,1.49,6.84,2.23,12.02,2.23,4.13,0,8.52-.45,13.18-1.37,4.66-.91,9.19-2.04,13.61-3.38l-2.59,28.08c-5.57,2.21-11.66,3.99-18.29,5.33-6.62,1.34-13.68,2.02-21.17,2.02-9.79,0-17.74-1.39-23.83-4.18-6.1-2.78-10.63-7.29-13.61-13.54-2.98-6.24-4.46-14.59-4.46-25.06v-157.68Z"/><path d="M954.88,254.01c7.06,18.67,14.95,36.27,23.69,52.78h2.02c8.06-16.61,15.07-33.72,21.02-51.34,5.95-17.62,11.09-37.08,15.41-58.39h37.44c-4.7,20.83-11.23,42.1-19.58,63.79-8.35,21.7-17.81,43.73-28.37,66.1l-5.18,10.66c-5.76,12.19-12.89,23.74-21.38,34.63-8.5,10.89-18.05,19.85-28.66,26.86-10.61,7.01-21.48,10.51-32.62,10.51-5.47,0-10.85-.72-16.13-2.16l-7.92-32.4c7.39,1.73,14.4,2.59,21.02,2.59,7.39,0,13.85-1.13,19.37-3.38,5.52-2.26,10.15-5.28,13.9-9.07,3.74-3.79,6.96-8.28,9.65-13.46l5.47-10.37,8.64,5.76-4.46,12.96c-10.85-18.53-20.43-36.29-28.73-53.28-8.3-16.99-15.77-34.42-22.39-52.27-6.62-17.86-12.67-37.01-18.14-57.46h38.45c4.61,19.3,10.44,38.28,17.5,56.95Z"/><path d="M1214.88,196.92l2.16,19.01-85.68,108-4.61-7.06h102.24l-12.96,31.82h-128.02l-1.58-20.45,83.52-104.98,6.62,3.17h-92.88l11.52-29.52h119.66Z"/><path d="M1296.88,239.61c-2.64,5.71-3.96,13.42-3.96,23.11,0,13.06,1.42,23.86,4.25,32.4,2.83,8.55,8.23,15.29,16.2,20.23,7.97,4.95,19.39,7.42,34.27,7.42,7.78,0,15.34-.65,22.68-1.94s14.13-2.95,20.38-4.97l-.86,27.36c-7.3,2.59-15.36,4.73-24.19,6.41-8.83,1.68-18.34,2.52-28.51,2.52-17.57,0-32.35-2.83-44.35-8.5-12-5.66-21.07-14.06-27.22-25.2-6.15-11.13-9.22-24.91-9.22-41.33,0-18.81,3.82-34.49,11.45-47.02s17.59-21.74,29.88-27.65c12.29-5.9,25.58-8.86,39.89-8.86s24.89,2.62,33.77,7.85c8.88,5.23,15.38,12.62,19.51,22.18,4.13,9.55,6.19,20.81,6.19,33.77v19.15h-110.02v-20.88h82.22l-8.93,12.1c.77-2.4,1.34-4.85,1.73-7.34.38-2.5.58-5.28.58-8.35,0-7.29-1.22-13.29-3.67-18-2.45-4.7-6.1-8.21-10.94-10.51-4.85-2.3-10.92-3.46-18.22-3.46-5.47,0-10.1.6-13.9,1.8-3.79,1.2-6.94,2.81-9.43,4.82-3.74,2.88-6.94,7.18-9.58,12.89Z"/><path d="M1440.95,234.21c7.1-12.86,16.8-22.51,29.09-28.94,12.29-6.43,26.11-9.65,41.47-9.65,9.89,0,19.37,1.3,28.44,3.89,9.07,2.59,17.69,6.48,25.85,11.66l-13.54,22.61c-7.68-4.7-15.31-8.21-22.9-10.51-7.58-2.3-15.41-3.46-23.47-3.46-5.09,0-9.6.53-13.54,1.58-3.94,1.06-7.83,2.88-11.66,5.47-4.7,3.17-8.54,8.26-11.52,15.26-2.98,7.01-4.46,17.38-4.46,31.1,0,16.03,2.86,28.97,8.57,38.81,5.71,9.84,15.96,14.76,30.74,14.76,7.29,0,14.9-1.3,22.82-3.89,7.92-2.59,16.15-6.19,24.7-10.8l-7.06,20.3h-5.33c-6.91,6.15-14.38,10.94-22.39,14.4-8.02,3.46-17.02,5.18-27,5.18-12.58,0-23.33-2.86-32.26-8.57-8.93-5.71-15.7-13.85-20.3-24.41-4.61-10.56-6.91-23.13-6.91-37.73,0-18.53,3.55-34.22,10.66-47.09ZM1540.89,128.37h32.69v220.32h-30.67v-25.92l-2.02-2.02v-192.38Z" fill="#fff"/></g><g fill="#fff"><rect x="1415.46" y="74.77" width="189.61" height="350.46"/><path d="M288.1,284.11c-9.89.43-18.29,1.66-25.2,3.67-6.24,1.73-10.63,4.1-13.18,7.13-2.54,3.02-3.82,6.84-3.82,11.45s1.15,8.3,3.46,11.66c2.3,3.36,5.59,5.95,9.86,7.78,4.27,1.83,9.29,2.74,15.05,2.74,6.24,0,13.1-.98,20.59-2.95,7.49-1.97,14.83-4.77,22.03-8.42l1.73,18.86h-6.34c-8.64,5.57-17.55,9.62-26.71,12.17-9.17,2.54-17.64,3.82-25.42,3.82-9.89,0-18.36-1.71-25.42-5.11-7.06-3.41-12.43-8.14-16.13-14.18-3.7-6.05-5.54-12.91-5.54-20.59,0-12.96,5.54-23.11,16.63-30.46s24.29-12.43,39.6-15.26c15.31-2.83,31.37-4.49,48.17-4.97l.58,22.61c-10.08-.38-20.07-.36-29.95.07ZM314.88,348.69v-103.97c0-5.09-1.22-9.19-3.67-12.31-2.45-3.12-5.81-5.4-10.08-6.84-4.27-1.44-9.29-2.16-15.05-2.16-9.7,0-20.28,1.11-31.75,3.31-11.47,2.21-23.4,5.52-35.78,9.94l4.46-30.67c10.08-3.17,20.71-5.71,31.9-7.63,11.18-1.92,22.29-2.88,33.34-2.88,13.63,0,24.82,1.51,33.55,4.54,8.73,3.02,15.21,7.7,19.44,14.04,4.22,6.34,6.34,14.45,6.34,24.34v110.3h-32.69Z"/><path d="M430.37,348.69h-32.54v-149.76h30.82v25.34l1.73,2.02v122.4ZM494.74,348.69v-103.97c0-5.66-.96-10.22-2.88-13.68-1.92-3.46-4.63-5.95-8.14-7.49-3.51-1.54-7.75-2.3-12.74-2.3-8.26,0-16.49,1.78-24.7,5.33-8.21,3.55-16.2,8.4-23.98,14.54l2.16-22.61h5.76c7.1-7.1,15.48-12.69,25.13-16.78,9.65-4.08,19.66-6.12,30.02-6.12,13.34,0,23.62,3.46,30.82,10.37s10.85,16.51,10.94,28.8l.58,113.9h-32.98Z"/><path d="M645.21,284.11c-9.89.43-18.29,1.66-25.2,3.67-6.24,1.73-10.63,4.1-13.18,7.13-2.54,3.02-3.82,6.84-3.82,11.45s1.15,8.3,3.46,11.66c2.3,3.36,5.59,5.95,9.86,7.78,4.27,1.83,9.29,2.74,15.05,2.74,6.24,0,13.1-.98,20.59-2.95,7.49-1.97,14.83-4.77,22.03-8.42l1.73,18.86h-6.34c-8.64,5.57-17.55,9.62-26.71,12.17-9.17,2.54-17.64,3.82-25.42,3.82-9.89,0-18.36-1.71-25.42-5.11-7.06-3.41-12.43-8.14-16.13-14.18-3.7-6.05-5.54-12.91-5.54-20.59,0-12.96,5.54-23.11,16.63-30.46s24.29-12.43,39.6-15.26c15.31-2.83,31.37-4.49,48.17-4.97l.58,22.61c-10.08-.38-20.07-.36-29.95.07ZM672,348.69v-103.97c0-5.09-1.22-9.19-3.67-12.31-2.45-3.12-5.81-5.4-10.08-6.84-4.27-1.44-9.29-2.16-15.05-2.16-9.7,0-20.28,1.11-31.75,3.31-11.47,2.21-23.4,5.52-35.78,9.94l4.46-30.67c10.08-3.17,20.71-5.71,31.9-7.63,11.18-1.92,22.29-2.88,33.34-2.88,13.63,0,24.82,1.51,33.55,4.54,8.73,3.02,15.21,7.7,19.44,14.04,4.22,6.34,6.34,14.45,6.34,24.34v110.3h-32.69Z"/><path d="M788.64,147.81l6.48,6.48h-57.17l2.88-25.92h80.5v175.82c0,4.8.58,8.71,1.73,11.74,1.15,3.02,3.24,5.31,6.26,6.84,3.02,1.54,7.27,2.3,12.74,2.3,4.51,0,9.26-.55,14.26-1.66,4.99-1.1,9.7-2.38,14.11-3.82l-2.45,24.77c-5.57,2.3-11.59,4.15-18.07,5.54-6.48,1.39-13.42,2.09-20.81,2.09-9.7,0-17.47-1.39-23.33-4.18-5.86-2.78-10.2-7.22-13.03-13.32-2.83-6.1-4.25-14.23-4.25-24.41l.14-162.29Z"/><path d="M952.65,258.48c7.68,19.35,16.32,37.85,25.92,55.51h2.02c9.02-17.86,16.82-36.02,23.4-54.5,6.57-18.48,12.21-38.66,16.92-60.55h32.69c-4.8,20.83-11.54,42.29-20.23,64.37-8.69,22.08-18.27,43.97-28.73,65.66l-6.05,12.1c-5.76,11.9-12.67,22.99-20.74,33.26-8.06,10.27-17.26,18.72-27.58,25.34-10.32,6.62-21.15,9.94-32.47,9.94-5.47,0-11.04-.67-16.7-2.02l-6.91-28.51c7.58,1.73,14.74,2.59,21.46,2.59,7.68,0,14.4-1.22,20.16-3.67,5.76-2.45,10.56-5.64,14.4-9.58,3.84-3.94,7.15-8.5,9.94-13.68l6.05-11.23,7.06,5.62-3.89,11.38c-10.66-18.05-20.11-35.5-28.37-52.34-8.26-16.85-15.77-34.22-22.54-52.13-6.77-17.9-12.89-36.94-18.36-57.1h33.55c4.99,20.35,11.33,40.2,19.01,59.54Z"/><path d="M1213,198.79l2.16,16.85-89.14,112.32-4.18-6.91h104.69l-11.09,27.65h-126.58l-1.73-18.14,87.12-109.01,5.62,3.17h-94.61l9.94-25.92h117.79Z"/><path d="M1294,240.26c-3.12,6.34-4.68,14.88-4.68,25.63,0,12.58,1.56,23.21,4.68,31.9,3.12,8.69,8.81,15.55,17.06,20.59,8.25,5.04,19.82,7.56,34.7,7.56,7.97,0,15.62-.67,22.97-2.02,7.34-1.34,14.18-3.12,20.52-5.33l-1.15,24.62c-7.01,2.59-14.81,4.73-23.4,6.41-8.59,1.68-17.88,2.52-27.86,2.52-17.28,0-31.8-2.86-43.56-8.57-11.76-5.71-20.64-14.11-26.64-25.2-6-11.09-9-24.6-9-40.54,0-18.24,3.72-33.55,11.16-45.94,7.44-12.38,17.21-21.55,29.3-27.5,12.1-5.95,25.25-8.93,39.46-8.93s24.62,2.59,33.26,7.78c8.64,5.18,14.95,12.38,18.94,21.6,3.98,9.22,5.98,19.97,5.98,32.26v18.14h-111.17v-18.72h86.98l-8.21,11.09c.67-2.3,1.17-4.68,1.51-7.13.33-2.45.5-5.16.5-8.14,0-7.49-1.27-13.7-3.82-18.65-2.54-4.94-6.41-8.64-11.59-11.09-5.18-2.45-11.66-3.67-19.44-3.67-5.86,0-10.87.65-15.05,1.94s-7.66,2.95-10.44,4.97c-4.23,3.26-7.9,8.06-11.02,14.4Z"/><path d="M1440.38,232.63c7.39-13.05,17.4-22.8,30.02-29.23,12.62-6.43,26.81-9.65,42.55-9.65,9.89,0,19.39,1.25,28.51,3.74,9.12,2.5,17.9,6.29,26.35,11.38l-16.85,25.78c-7.49-4.51-14.83-7.87-22.03-10.08-7.2-2.21-14.69-3.31-22.46-3.31-4.71,0-8.91.48-12.6,1.44-3.7.96-7.27,2.54-10.73,4.75-4.32,2.79-7.85,7.56-10.58,14.33-2.74,6.77-4.1,16.87-4.1,30.31,0,15.36,2.64,27.75,7.92,37.15,5.28,9.41,14.93,14.11,28.94,14.11,6.72,0,13.9-1.17,21.53-3.53,7.63-2.35,15.67-5.69,24.12-10.01l-9.07,22.46h-5.76c-6.62,6.24-13.85,11.09-21.67,14.54-7.83,3.46-16.58,5.18-26.28,5.18-12.29,0-22.85-2.81-31.68-8.42-8.83-5.62-15.58-13.73-20.23-24.34-4.66-10.61-6.98-23.4-6.98-38.38,0-19.1,3.69-35.18,11.09-48.24ZM1538.3,128.37h37.44v220.32h-35.42v-28.08l-2.02-2.02v-190.22Z" fill="#000"/></g></svg>